# xmcd
#
# Track frame offsets: 
#        150
#        17200
#        33092
#        50732
#        64152
#        77907
#        91972
#        101880
#        115937
#        125220
#        143165
#        153937
#        166710
#        187157
#        210897
#        237162
#        255595
#        274027
#
# Disc length: 3985 seconds
#
# Revision: 0
# Processed by: cddbd v1.5.2PL0 Copyright (c) Steve Scherf et al.
# Submitted via: ExactAudioCopy v1.0b4
#
DISCID=f80f8f12
DTITLE=Howlin' Wolf - The London Howlin' Wolf Sessions(JICK-89313 1993
DTITLE=)
DYEAR=1971
DGENRE=Blues
TTITLE0=Rockin' Daddy
TTITLE1=I Ain't Superstitious
TTITLE2=Sittin' On Top Of The World
TTITLE3=Worried About My Baby
TTITLE4=What A Woman!
TTITLE5=Poor Boy
TTITLE6=Built For Comfort
TTITLE7=Who's Been Talking?
TTITLE8=The Red Rooster (rehearsal)
TTITLE9=The Red Rooster
TTITLE10=Do The Do
TTITLE11=Highway 49
TTITLE12=Wang Dang Doodle
TTITLE13=Killing Floor
TTITLE14=Goin' Down Slow
TTITLE15=I Want To Have A Word With You
TTITLE16=Poor Boy
TTITLE17=The Red Rooster
EXTD=
EXTT0=
EXTT1=
EXTT2=
EXTT3=
EXTT4=
EXTT5=
EXTT6=
EXTT7=
EXTT8=
EXTT9=
EXTT10=
EXTT11=
EXTT12=
EXTT13=
EXTT14=
EXTT15=
EXTT16=
EXTT17=
PLAYORDER=
